<svg width="31" height="31" viewBox="0 0 31 31" fill="none" xmlns="http://www.w3.org/2000/svg">
<g clip-path="url(#clip0_8421_200670)">
<path opacity="0.3" d="M15.4722 4.375L11.8472 8L15.4722 11.5L18.9722 8L15.4722 4.375Z" fill="#FFC107"/>
<path d="M15.4722 0.875L8.34717 8L15.4722 15.125L22.4722 8L15.4722 0.875ZM11.8472 8L15.4722 4.375L18.9722 8L15.4722 11.5L11.8472 8Z" fill="#FFC107"/>
<path opacity="0.3" d="M15.3472 19.25L11.7227 23L15.4727 26.75L19.2227 23L15.3472 19.25Z" fill="#FFC107"/>
<path d="M15.4722 16L8.34717 23L15.4722 30.125L22.5972 23L15.4722 16ZM11.8472 23L15.3472 19.5L18.8472 23L15.4722 26.625L11.8472 23Z" fill="#FFC107"/>
<path opacity="0.3" d="M22.8472 12L19.3472 15.5L22.8472 19L26.3472 15.5L22.8472 12Z" fill="#FFC107"/>
<path d="M22.8472 8.5L15.8472 15.5L22.9722 22.625L30.0972 15.5L22.8472 8.5ZM19.3472 15.5L22.8472 12L26.3472 15.5L22.8472 19L19.3472 15.5Z" fill="#FFC107"/>
<path opacity="0.3" d="M7.97253 11.75L4.47217 15.4999L7.97253 19.25L11.7225 15.5L7.97253 11.75Z" fill="#FFC107"/>
<path d="M8.09717 8.5L0.972168 15.5L8.09717 22.625L15.2222 15.5L8.09717 8.5ZM4.47217 15.5L7.97217 12L11.5972 15.5L8.09717 19L4.47217 15.5Z" fill="#FFC107"/>
</g>
<defs>
<clipPath id="clip0_8421_200670">
<rect width="30" height="30" fill="white" transform="translate(0.472168 0.5)"/>
</clipPath>
</defs>
</svg>
