<svg width="31" height="31" viewBox="0 0 31 31" fill="none" xmlns="http://www.w3.org/2000/svg">
<g clip-path="url(#clip0_8421_200707)">
<path opacity="0.3" d="M18.9307 11.75H5.80566V16.125H18.9307V11.75Z" fill="#673AB7"/>
<path opacity="0.3" d="M18.9307 18.625H5.80566V23H18.9307V18.625Z" fill="#673AB7"/>
<path opacity="0.3" d="M25.8057 11.75H21.4307V23H25.8057V11.75Z" fill="#673AB7"/>
<path d="M25.8057 5.5H5.80566C4.43066 5.5 3.31816 6.625 3.31816 8L3.30566 23C3.30566 24.375 4.43066 25.5 5.80566 25.5H25.8057C27.1807 25.5 28.3057 24.375 28.3057 23V8C28.3057 6.625 27.1807 5.5 25.8057 5.5ZM18.9307 23H5.80566V18.625H18.9307V23ZM18.9307 16.125H5.80566V11.75H18.9307V16.125ZM25.8057 23H21.4307V11.75H25.8057V23Z" fill="#673AB7"/>
</g>
<defs>
<clipPath id="clip0_8421_200707">
<rect width="30" height="30" fill="white" transform="translate(0.805664 0.5)"/>
</clipPath>
</defs>
</svg>
