<svg width="31" height="31" viewBox="0 0 31 31" fill="none" xmlns="http://www.w3.org/2000/svg">
<g clip-path="url(#clip0_8421_200695)">
<path opacity="0.3" d="M6.38867 6.7499H11.3887V11.7499H6.38867V6.7499ZM18.8887 19.2499H23.8887V24.2499H18.8887V19.2499ZM6.38867 19.2499H11.3887V24.2499H6.38867V19.2499ZM20.9637 6.1499L17.4262 9.6749L20.9637 13.2124L24.5012 9.6749L20.9637 6.1499Z" fill="#2196F3"/>
<path d="M20.9637 2.75L13.8887 9.8125L20.9637 16.8875L28.0387 9.8125L20.9637 2.75ZM17.4262 9.8125L20.9637 6.275L24.5012 9.8125L20.9637 13.35L17.4262 9.8125ZM3.88867 4.3875V14.3875H13.8887V4.3875H3.88867ZM11.3887 11.8875H6.38867V6.8875H11.3887V11.8875ZM3.88867 26.8875H13.8887V16.8875H3.88867V26.8875ZM6.38867 19.3875H11.3887V24.3875H6.38867V19.3875ZM16.3887 16.8875V26.8875H26.3887V16.8875H16.3887ZM23.8887 24.3875H18.8887V19.3875H23.8887V24.3875Z" fill="#2196F3"/>
</g>
<defs>
<clipPath id="clip0_8421_200695">
<rect width="30" height="30" fill="white" transform="translate(0.138672 0.5)"/>
</clipPath>
</defs>
</svg>
